PathFileType	4	(X/Y/Z)	Walk8.trc
DataRate	CameraRate	NumFrames	NumMarkers	Units	OrigDataRate	OrigDataStartFrame	OrigNumFrames
200.000000	200.000000	6	61	mm	200.000000	503	754
Frame#	Times		RCAR		LUA1		LCAR		LFA1		LWRU		RTB3		RFHD		LElbow		RToe		LTH3		RTH2		RMT5		LWRR		LElbowM		RTB2		RMT1		LFHD		RPSI		STRN		RLFC		C7		RTH1		LTH4		RFA1		LTH2		T10		LLFC		RLMAL		LASI		CLAV		LPSI		RUA1		RBack		RTH3		RElbowM		LACR1		LCAL		RElbow		LMFC		LTB1		RWRR		RTH4		LTB2		LMT5		RTB4		RACR1		RMFC		LTB3		RMMAL		LTB4		LLMAL		LToe		RBHD		RWRU		RTB1		LTH1		LMMAL		LBHD		RCAL		LMT1		RASI
			X1	Y1	Z1	X2	Y2	Z2	X3	Y3	Z3	X4	Y4	Z4	X5	Y5	Z5	X6	Y6	Z6	X7	Y7	Z7	X8	Y8	Z8	X9	Y9	Z9	X10	Y10	Z10	X11	Y11	Z11	X12	Y12	Z12	X13	Y13	Z13	X14	Y14	Z14	X15	Y15	Z15	X16	Y16	Z16	X17	Y17	Z17	X18	Y18	Z18	X19	Y19	Z19	X20	Y20	Z20	X21	Y21	Z21	X22	Y22	Z22	X23	Y23	Z23	X24	Y24	Z24	X25	Y25	Z25	X26	Y26	Z26	X27	Y27	Z27	X28	Y28	Z28	X29	Y29	Z29	X30	Y30	Z30	X31	Y31	Z31	X32	Y32	Z32	X33	Y33	Z33	X34	Y34	Z34	X35	Y35	Z35	X36	Y36	Z36	X37	Y37	Z37	X38	Y38	Z38	X39	Y39	Z39	X40	Y40	Z40	X41	Y41	Z41	X42	Y42	Z42	X43	Y43	Z43	X44	Y44	Z44	X45	Y45	Z45	X46	Y46	Z46	X47	Y47	Z47	X48	Y48	Z48	X49	Y49	Z49	X50	Y50	Z50	X51	Y51	Z51	X52	Y52	Z52	X53	Y53	Z53	X54	Y54	Z54	X55	Y55	Z55	X56	Y56	Z56	X57	Y57	Z57	X58	Y58	Z58	X59	Y59	Z59	X60	Y60	Z60	X61	Y61	Z61

503	2.515	-344.63	844.38	320.01	-340.7	1308.2	-298.81	-104.54	897.86	-317.76	-259.93	1017.6	-339.39	-186.46	905.08	-315.85	-215.62	210.94	111.15	-393.28	1645.2	-104.55	-331.61	1153.4	-338.09	-85.269	64.529	155.64	-409.99	615.88	-174.31	-228.31	740.02	161.41	-178.94	38.726	191.68	-131.84	943.57	-265.95	-370.92	1130.8	-273.93	-239.85	299.17	176.78	-124.59	54.63	125.56	-388.79	1654.4	36.665	-523.44	1029.4	26.858	-238.26	1256.7	-24.758	-249.82	517.81	184	-415.33	1518	-32.579	-323.97	812.3	192.71	-396.21	705.95	-188.36	-439.46	1005.4	297.35	-328.16	700.65	-165.35	-520.49	1296.4	-32.716	-434.59	512.57	-163.46	-270.26	86.625	146.32	-312.9	1039.1	-153.38	-283.81	1430.6	-26.091	-524.74	1028	-50.987	-407.61	1303.4	230.51	-501	1433.6	91.858	-267.17	629.99	190.96	-476.11	1136.6	188.38	-335.34	1473.3	-192.69	-591.51	29.564	-82.4	-460.01	1154.7	266.74	-423.13	516	-33.505	-411.34	369.23	-87.846	-340.13	882.32	264.52	-291.49	722.1	197.21	-457.6	288.64	-157.05	-436.28	20.031	-163.21	-202.53	302.27	116.54	-349.15	1470.7	133.3	-226.97	527.79	52.251	-461.51	190	-85.47	-224.17	112.28	74.526	-436	283	-85.019	-531.81	70.923	-125.07	-333.01	29.263	-94.796	-215.87	1692.8	-69.015	-404.6	873.14	305.44	-192.5	394.72	124.39	-379.61	796.92	-202.13	-502.95	89.042	-43.586	-214.31	1696.2	7.1419	-313.43	46.955	87.298	-386.85	38.816	-79.669	-313.63	1046.2	129.86
504	2.52	-342.49	843.52	321.03	-335.08	1308	-298.55	-96.025	899.88	-317.69	-252.47	1018.1	-339.45	-178.02	906.27	-315.7	-202.5	210.76	111.7	-388.06	1644.6	-103.9	-325.32	1153.3	-338.28	-67.859	67.229	156.14	-407.55	615.78	-174.16	-223.71	739.03	161.16	-160.95	39.416	192.6	-123.72	945.35	-265.9	-364.53	1130.4	-274.13	-228.83	298.61	177.07	-107.19	56.607	126.23	-383.53	1653.7	37.315	-518.45	1028.7	27.274	-233.22	1256	-24.318	-244.49	517.04	183.62	-410.1	1517.4	-32.034	-319.12	811.39	192.85	-393.08	705.77	-188.06	-436.47	1005.1	297.89	-325.15	699.93	-164.9	-515.45	1295.9	-32.23	-433.01	512.57	-163.39	-253.63	85.113	147.49	-308.12	1038.5	-153.06	-278.61	1429.9	-25.563	-519.85	1027.4	-50.563	-403.15	1302.8	230.97	-495.87	1433.1	92.247	-262.6	629.03	190.74	-472.07	1136.3	188.66	-330.07	1472.8	-192.09	-591.48	29.809	-82.428	-456.18	1154.4	267.08	-421.58	516.04	-33.425	-410.4	369.07	-87.793	-337.62	881.41	265.61	-286.8	721.18	197.12	-456.9	288.66	-157.04	-436.31	20.003	-163.24	-191.86	302.44	116.68	-343.98	1470	133.87	-222.13	526.97	51.625	-461.09	190	-85.473	-208.46	111.75	75.412	-435.32	282.93	-84.983	-531.76	71.139	-125.11	-333	29.241	-94.81	-210.63	1692.1	-68.399	-402.25	872.59	306.21	-184.29	395.13	124.14	-375.8	796.61	-201.75	-502.84	89.146	-43.609	-209.05	1695.5	7.7728	-296.07	44.286	88.661	-386.84	38.821	-79.7	-308.64	1045.5	130.23
505	2.525	-340.29	842.65	322.07	-329.48	1307.8	-298.26	-87.623	901.84	-317.6	-245.1	1018.6	-339.47	-169.7	907.42	-315.53	-189.55	210.7	112.24	-382.83	1643.9	-103.22	-319.09	1153.2	-338.44	-50.718	70.074	156.58	-405.07	615.68	-173.98	-219.16	737.94	160.92	-143.18	40.306	193.47	-115.72	947.07	-265.84	-358.19	1130	-274.3	-217.93	298.13	177.38	-90.058	58.753	126.86	-378.25	1653	37.992	-513.44	1028	27.719	-228.17	1255.2	-23.862	-239.24	516.22	183.23	-404.85	1516.9	-31.461	-314.31	810.4	192.99	-389.91	705.57	-187.74	-433.4	1004.7	298.46	-322.11	699.19	-164.41	-510.4	1295.4	-31.711	-431.39	512.58	-163.3	-237.18	83.838	148.66	-303.32	1037.9	-152.73	-273.4	1429.2	-25.011	-514.94	1026.8	-50.107	-398.65	1302.2	231.45	-490.71	1432.6	92.673	-258.12	627.97	190.5	-468	1135.9	188.97	-324.79	1472.3	-191.46	-591.45	30.071	-82.454	-452.3	1154	267.47	-419.99	516.1	-33.331	-409.43	368.91	-87.732	-335.05	880.47	266.71	-282.18	720.16	197.01	-456.18	288.7	-157.02	-436.34	19.971	-163.25	-181.34	302.68	116.82	-338.79	1469.3	134.46	-217.38	526.09	51.003	-460.64	190.01	-85.473	-192.96	111.42	76.304	-434.62	282.86	-84.943	-531.7	71.373	-125.16	-332.99	29.217	-94.828	-205.39	1691.5	-67.758	-399.85	872.02	307	-176.21	395.54	123.87	-371.96	796.28	-201.35	-502.73	89.254	-43.634	-203.78	1694.8	8.426	-278.9	41.888	90.05	-386.82	38.823	-79.729	-303.63	1044.8	130.63
506	2.53	-338.01	841.76	323.12	-323.9	1307.6	-297.94	-79.343	903.75	-317.48	-237.82	1019	-339.47	-161.48	908.53	-315.33	-176.8	210.77	112.78	-377.58	1643.3	-102.51	-312.92	1153.1	-338.57	-33.885	73.045	156.97	-402.53	615.57	-173.78	-214.65	736.75	160.68	-125.68	41.378	194.27	-107.83	948.73	-265.74	-351.91	1129.6	-274.44	-207.17	297.73	177.69	-73.229	61.048	127.43	-372.96	1652.2	38.697	-508.41	1027.2	28.192	-223.1	1254.4	-23.391	-234.08	515.35	182.84	-399.59	1516.2	-30.857	-309.52	809.34	193.14	-386.7	705.36	-187.41	-430.26	1004.2	299.06	-319.04	698.44	-163.88	-505.34	1294.9	-31.158	-429.72	512.58	-163.2	-220.94	82.796	149.83	-298.52	1037.3	-152.39	-268.18	1428.5	-24.437	-510.01	1026.1	-49.62	-394.09	1301.6	231.97	-485.52	1432	93.139	-253.72	626.83	190.24	-463.89	1135.5	189.31	-319.51	1471.7	-190.81	-591.42	30.354	-82.478	-448.36	1153.6	267.89	-418.35	516.16	-33.22	-408.42	368.75	-87.663	-332.42	879.52	267.81	-277.6	719.06	196.9	-455.43	288.74	-156.99	-436.38	19.936	-163.27	-170.99	302.99	116.95	-333.57	1468.6	135.08	-212.7	525.15	50.388	-460.18	190.02	-85.471	-177.71	111.29	77.192	-433.88	282.79	-84.898	-531.63	71.624	-125.21	-332.98	29.192	-94.849	-200.13	1690.8	-67.091	-397.37	871.43	307.82	-168.26	395.96	123.61	-368.08	795.94	-200.94	-502.61	89.366	-43.664	-198.49	1694.1	9.1022	-261.96	39.759	91.446	-386.81	38.819	-79.757	-298.59	1044	131.04
507	2.535	-335.66	840.85	324.18	-318.34	1307.3	-297.6	-71.187	905.6	-317.34	-230.62	1019.4	-339.44	-153.38	909.59	-315.12	-164.27	210.96	113.32	-372.33	1642.6	-101.77	-306.81	1153	-338.67	-17.401	76.116	157.29	-399.95	615.45	-173.57	-210.17	735.49	160.44	-108.49	42.61	195	-100.06	950.33	-265.62	-345.68	1129.2	-274.54	-196.57	297.43	178	-56.742	63.466	127.96	-367.66	1651.4	39.429	-503.35	1026.5	28.695	-218.02	1253.6	-22.905	-228.99	514.44	182.46	-394.32	1515.6	-30.223	-304.75	808.22	193.3	-383.45	705.13	-187.07	-427.04	1003.8	299.7	-315.94	697.67	-163.32	-500.26	1294.3	-30.571	-427.98	512.58	-163.08	-204.96	81.979	150.99	-293.7	1036.7	-152.06	-262.94	1427.7	-23.841	-505.05	1025.4	-49.099	-389.49	1300.9	232.51	-480.31	1431.4	93.646	-249.37	625.62	189.96	-459.74	1135.1	189.7	-314.22	1471.1	-190.12	-591.39	30.659	-82.502	-444.35	1153.2	268.34	-416.67	516.22	-33.091	-407.37	368.59	-87.587	-329.73	878.56	268.92	-273.06	717.9	196.77	-454.65	288.78	-156.96	-436.41	19.899	-163.29	-160.81	303.35	117.09	-328.33	1467.8	135.72	-208.07	524.17	49.788	-459.71	190.04	-85.467	-162.73	111.35	78.067	-433.11	282.71	-84.85	-531.55	71.89	-125.25	-332.97	29.166	-94.874	-194.86	1690.1	-66.398	-394.83	870.82	308.66	-160.44	396.37	123.36	-364.17	795.58	-200.51	-502.49	89.482	-43.697	-193.2	1693.3	9.8021	-245.29	37.895	92.828	-386.8	38.811	-79.782	-293.52	1043.2	131.48
508	2.54	-333.24	839.92	325.26	-312.8	1307	-297.22	-63.155	907.39	-317.18	-223.52	1019.8	-339.38	-145.39	910.6	-314.88	-151.97	211.26	113.84	-367.07	1641.8	-101.01	-300.76	1152.8	-338.74	-1.3066	79.26	157.55	-397.31	615.31	-173.34	-205.71	734.16	160.21	-91.659	43.98	195.64	-92.403	951.88	-265.48	-339.51	1128.7	-274.6	-186.16	297.2	178.32	-40.635	65.981	128.43	-362.34	1650.6	40.189	-498.28	1025.6	29.227	-212.92	1252.8	-22.405	-223.95	513.51	182.08	-389.05	1514.9	-29.557	-299.99	807.05	193.47	-380.16	704.88	-186.71	-423.74	1003.3	300.37	-312.8	696.89	-162.74	-495.17	1293.8	-29.95	-426.19	512.58	-162.94	-189.29	81.373	152.1	-288.87	1036.1	-151.72	-257.69	1426.9	-23.222	-500.07	1024.7	-48.544	-384.84	1300.3	233.08	-475.08	1430.8	94.195	-245.06	624.34	189.67	-455.54	1134.7	190.14	-308.93	1470.4	-189.41	-591.35	30.989	-82.525	-440.28	1152.7	268.83	-414.93	516.28	-32.942	-406.28	368.44	-87.502	-326.97	877.58	270.04	-268.54	716.67	196.64	-453.84	288.84	-156.91	-436.44	19.86	-163.31	-150.82	303.77	117.22	-323.06	1467	136.39	-203.47	523.15	49.21	-459.21	190.06	-85.459	-148.06	111.57	78.915	-432.3	282.64	-84.797	-531.47	72.172	-125.3	-332.97	29.138	-94.904	-189.59	1689.4	-65.677	-392.22	870.19	309.53	-152.74	396.79	123.12	-360.22	795.21	-200.07	-502.36	89.606	-43.734	-187.9	1692.5	10.526	-228.93	36.287	94.175	-386.8	38.796	-79.804	-288.43	1042.4	131.93
